<svg width="276" height="276" viewBox="0 0 276 276" fill="none" xmlns="http://www.w3.org/2000/svg">
<path d="M117.475 173.88H117.441H117.439C112.332 177.932 110.819 185.033 113.863 190.805L113.863 190.805C114.387 191.817 115.166 192.815 116.305 193.953L139.522 217.171L162.739 193.954C163.878 192.806 164.648 191.817 165.181 190.805L165.182 190.804C168.258 185.014 166.734 177.898 161.578 173.859L161.578 173.859C159.154 171.944 156.278 170.955 153.228 170.955C149.043 170.955 145.15 172.842 142.582 176.137L117.475 173.88ZM117.475 173.88L117.503 173.859C119.899 171.971 122.803 170.955 125.825 170.955C130.009 170.955 133.885 172.842 136.471 176.137C136.472 176.137 136.472 176.137 136.472 176.137L138.007 178.112L138.008 178.113C138.382 178.579 138.962 178.809 139.533 178.809C140.105 178.809 140.68 178.579 141.045 178.112L141.046 178.112L142.582 176.137L117.475 173.88ZM139.531 173.779L139.513 173.805L139.495 173.779L139.495 173.778L139.491 173.773C136.153 169.553 131.177 167.125 125.807 167.125C121.935 167.125 118.128 168.449 115.093 170.849C108.472 176.045 106.531 185.195 110.458 192.626C111.168 193.981 112.181 195.278 113.593 196.7L113.623 196.73H113.641L138.189 221.278C138.575 221.663 139.067 221.847 139.549 221.847C140.042 221.847 140.524 221.663 140.909 221.278L165.487 196.7C166.909 195.278 167.912 193.981 168.622 192.626C172.549 185.195 170.581 176.045 163.96 170.849L163.96 170.849C160.843 168.422 157.146 167.125 153.219 167.125C147.848 167.125 142.845 169.552 139.535 173.774L139.534 173.773L139.531 173.779Z" fill="#0099FF" stroke="#0099FF" stroke-width="0.2"/>
<path d="M233.297 116.271V116.288H171.075V42.8287C171.075 41.7768 170.199 40.9 169.147 40.9H102.701C101.649 40.9 100.773 41.7768 100.773 42.8287V116.288H45.7021C41.9439 116.288 38.9 119.331 38.9 123.09V140.471C38.9 144.23 41.9437 147.274 45.7021 147.274H55.0656V243.655C55.0656 244.707 55.9424 245.584 56.9943 245.584L222.105 245.593C223.157 245.593 224.034 244.716 224.034 243.664V147.257H233.397C237.156 147.257 240.2 144.213 240.2 140.455V123.073C240.2 119.315 237.156 116.271 233.397 116.271H233.297ZM158.343 64.0139L158.342 64.013C157.959 63.6581 157.419 63.4445 156.875 63.5023C150.337 64.0101 144.65 59.3885 144.65 53.6539C144.65 52.602 143.773 51.7252 142.722 51.7252H128.065C127.013 51.7252 126.136 52.602 126.136 53.6539C126.136 59.1001 121.073 63.5475 114.825 63.5475C113.773 63.5475 112.896 64.4243 112.896 65.4762V116.258H104.639L104.639 44.7568H167.226V116.288H158.969L158.96 65.4305C158.96 64.8898 158.728 64.3794 158.343 64.0139ZM140.954 55.5734C141.948 62.0218 147.878 67.0131 155.104 67.373V116.287H116.755V67.2935C123.496 66.5017 128.888 61.6829 129.861 55.5734H140.954ZM220.178 241.707H58.923V147.253H220.178V241.707ZM236.343 140.452C236.343 142.079 235.026 143.397 233.398 143.397H45.7019C44.0748 143.397 42.7571 142.079 42.7571 140.452V123.07C42.7571 121.443 44.0747 120.126 45.7019 120.126L233.398 120.116C235.026 120.116 236.343 121.434 236.343 123.061V140.452Z" fill="#0099FF" stroke="#0099FF" stroke-width="0.2"/>
</svg>
