<svg width="276" height="276" viewBox="0 0 276 276" fill="none" xmlns="http://www.w3.org/2000/svg">
<path fill-rule="evenodd" clip-rule="evenodd" d="M135.414 101.083H174.833C176.029 101.083 177.096 100.607 177.904 99.7988C178.688 99.0151 179.189 97.9245 179.189 96.7287C179.189 95.5329 178.712 94.4664 177.904 93.6585C177.12 92.8748 176.029 92.3739 174.833 92.3739H135.414C134.218 92.3739 133.151 92.8506 132.343 93.6585C131.559 94.4422 131.058 95.5329 131.058 96.7287C131.058 97.9245 131.534 98.991 132.343 99.7988C133.151 100.607 134.218 101.083 135.414 101.083ZM135.236 176.148C132.407 174.055 129.902 171.534 127.849 168.682C123.905 163.197 121.601 156.45 121.601 149.179C121.601 139.928 125.343 131.542 131.421 125.491C137.499 119.415 145.865 115.675 155.119 115.675C164.373 115.675 172.763 119.415 178.816 125.491C184.87 131.567 188.636 139.929 188.636 149.179C188.636 158.43 184.894 166.816 178.816 172.867C173.934 177.747 167.582 181.116 160.453 182.247C162.328 184.598 163.5 187.539 163.678 190.763V190.852L187.003 181.253C191.165 177.117 194.52 172.197 196.823 166.735C199.086 161.354 200.355 155.416 200.355 149.163C200.355 138.886 196.936 129.417 191.19 121.839C185.354 114.156 177.118 108.387 167.606 105.664H142.623C133.102 108.387 124.875 114.156 119.04 121.839C113.293 129.417 109.874 138.886 109.874 149.163C109.874 153.388 110.44 157.476 111.531 161.314C112.622 165.192 114.207 168.868 116.235 172.261C116.914 172.867 117.561 173.506 118.24 174.152C118.741 174.653 119.282 175.025 119.896 175.283C120.503 175.542 121.157 175.679 121.86 175.695L135.277 176.107L135.236 176.148ZM155.297 178.087C153.187 177.044 150.787 176.479 148.265 176.543L145.541 176.455C139.876 174.475 135.018 170.775 131.599 165.984C128.205 161.241 126.2 155.424 126.2 149.155C126.2 141.165 129.449 133.934 134.67 128.715C139.9 123.487 147.125 120.247 155.119 120.247C163.113 120.247 170.346 123.495 175.568 128.715C180.797 133.942 184.038 141.165 184.038 149.155C184.038 157.145 180.789 164.376 175.568 169.595C170.363 174.798 163.193 178.022 155.289 178.062L155.297 178.087ZM152.832 128.053C152.832 126.792 153.858 125.766 155.119 125.766C156.38 125.766 157.406 126.792 157.406 128.053V129.119C159.605 129.58 161.569 130.662 163.088 132.189C165.133 134.233 166.402 137.045 166.402 140.18C166.402 141.44 165.376 142.466 164.115 142.466C162.854 142.466 161.827 141.44 161.827 140.18C161.827 138.33 161.084 136.649 159.863 135.453C158.643 134.233 156.97 133.49 155.135 133.49C153.309 133.49 151.603 134.233 150.407 135.453C149.186 136.673 148.443 138.346 148.443 140.18C148.443 145.205 152.056 146.078 155.677 146.926C161.06 148.21 166.434 149.495 166.434 158.156C166.434 161.267 165.173 164.102 163.12 166.146C161.593 167.673 159.637 168.756 157.438 169.217V170.283C157.438 171.543 156.412 172.57 155.151 172.57C153.89 172.57 152.864 171.543 152.864 170.283V169.217C150.665 168.756 148.701 167.673 147.182 166.146C145.137 164.102 143.868 161.291 143.868 158.156C143.868 156.896 144.894 155.87 146.155 155.87C147.416 155.87 148.443 156.896 148.443 158.156C148.443 160.006 149.186 161.687 150.407 162.882C151.627 164.102 153.284 164.846 155.135 164.846C156.986 164.846 158.667 164.102 159.863 162.882C161.059 161.663 161.827 159.99 161.827 158.156C161.827 153.131 158.214 152.258 154.593 151.41C149.21 150.125 143.836 148.841 143.836 140.18C143.836 137.069 145.097 134.233 147.15 132.189C148.677 130.662 150.633 129.58 152.832 129.119V128.053ZM169.255 66.6103C170.346 65.7863 171.567 65.1722 172.868 64.8248C175.398 64.1462 178.186 64.4289 180.643 65.8509C183.084 67.2647 184.741 69.5268 185.412 72.0799C186.091 74.6088 185.808 77.4122 184.386 79.8521L179.14 88.9331C179.884 89.3452 180.554 89.8461 181.144 90.4359C182.753 92.0436 183.755 94.2897 183.755 96.7458C183.755 99.2099 182.753 101.424 181.144 103.056C180.32 103.88 179.318 104.558 178.202 105.019C184.733 108.436 190.399 113.268 194.844 119.085C201.205 127.447 204.971 137.877 204.971 149.172C204.971 156.007 203.581 162.56 201.076 168.506C199.726 171.681 198.069 174.711 196.113 177.522L207.744 172.731C207.922 172.667 208.091 172.602 208.285 172.578C218.655 171.035 226.471 172.667 231.045 175.842C233.22 177.369 234.723 179.259 235.467 181.352C236.226 183.525 236.186 185.86 235.273 188.211C233.729 192.194 229.542 196.226 222.422 199.336H222.381L127.486 242.812C124.673 244.096 121.844 244.815 118.991 244.969C116.114 245.122 113.244 244.71 110.319 243.725L73.1388 231.186C72.9206 232.228 72.0072 232.995 70.892 232.995L47.4035 233.003C45.3586 233.003 43.5078 232.179 42.1742 230.83C40.8487 229.481 40 227.631 40 225.603V164.839C40 162.795 40.8244 160.961 42.1742 159.612C43.524 158.263 45.3749 157.438 47.4035 157.438H70.9064C72.1673 157.438 73.1938 158.464 73.1938 159.725V161.05C73.7354 161.026 74.3011 160.985 74.8669 160.945C82.0765 160.509 89.48 160.072 96.0194 161.203C96.1083 161.203 96.2133 161.244 96.3022 161.268C100.311 162.27 104.118 163.861 107.779 165.994C107.973 166.099 108.175 166.237 108.369 166.342C107.909 165.081 107.496 163.813 107.125 162.512C105.929 158.246 105.298 153.762 105.298 149.141C105.298 137.838 109.064 127.432 115.425 119.054C119.846 113.221 125.528 108.406 132.067 104.988C130.96 104.527 129.958 103.857 129.125 103.025C127.517 101.417 126.514 99.1708 126.514 96.7147C126.514 94.2506 127.517 92.0369 129.125 90.4048C129.715 89.815 130.386 89.3141 131.13 88.9021L125.884 79.8211C124.469 77.3811 124.187 74.5939 124.857 72.0489C125.536 69.52 127.185 67.2337 129.626 65.8198C132.067 64.406 134.872 64.1232 137.401 64.7938C138.711 65.1412 139.931 65.7552 141.014 66.5793C141.386 63.3153 142.889 60.3744 145.088 58.1769C147.658 55.6077 151.231 54 155.126 54C159.022 54 162.595 55.5916 165.165 58.1769C167.388 60.3986 168.867 63.3153 169.239 66.5793L169.255 66.6103ZM174.501 87.8185L180.425 77.566C181.209 76.2168 181.363 74.6737 180.967 73.276C180.595 71.8864 179.682 70.6178 178.332 69.8342C176.982 69.0505 175.439 68.897 174.04 69.2929C172.65 69.6645 171.381 70.5775 170.597 71.9266L169.336 74.1V79.8039C169.336 81.0642 168.31 82.0904 167.049 82.0904C165.788 82.0904 164.761 81.0643 164.761 79.8039V68.2829C164.761 65.6248 163.67 63.2334 161.932 61.4882C160.187 59.7431 157.77 58.6604 155.135 58.6604C152.5 58.6604 150.084 59.7511 148.338 61.4882C146.592 63.2333 145.509 65.649 145.509 68.2829V79.8039C145.509 81.0642 144.482 82.0904 143.221 82.0904C141.96 82.0904 140.934 81.0643 140.934 79.8039V74.1L139.673 71.9266C138.889 70.5774 137.628 69.6807 136.23 69.2929C134.88 68.9212 133.401 69.0505 132.092 69.7534C132.003 69.818 131.914 69.8584 131.833 69.9069C130.548 70.6906 129.675 71.9105 129.328 73.284C128.956 74.6332 129.085 76.1117 129.788 77.4205C129.853 77.5094 129.918 77.6144 129.966 77.7033L135.802 87.8265H174.55L174.501 87.8185ZM73.1787 226.369V165.646C73.8334 165.605 74.4881 165.557 75.1185 165.541C82.0453 165.129 89.1415 164.693 95.1549 165.735C98.7274 166.623 102.17 168.045 105.436 169.96C108.766 171.924 111.95 174.404 114.973 177.409C115.911 178.322 116.913 179.017 118.045 179.518C119.152 179.995 120.372 180.261 121.682 180.302L148.168 181.126H148.298C151.151 181.037 153.761 182.087 155.701 183.873C157.641 185.658 158.926 188.187 159.08 191.015C159.233 193.842 158.255 196.5 156.509 198.48C154.788 200.443 152.347 201.768 149.558 202.01H125.383C124.122 202.01 123.095 203.037 123.095 204.297C123.095 205.557 124.122 206.583 125.383 206.583H149.647H149.825C153.899 206.26 157.471 204.337 159.977 201.486C161.351 199.918 162.393 198.068 163.024 196.04L209.198 177.054C218.194 175.769 224.748 177.054 228.41 179.583C229.784 180.544 230.722 181.675 231.134 182.847C231.53 183.978 231.506 185.222 231.004 186.523C229.873 189.464 226.494 192.55 220.594 195.119C220.554 195.119 220.505 195.159 220.489 195.184L125.594 238.642C123.331 239.685 121.043 240.25 118.756 240.387C116.469 240.517 114.141 240.169 111.765 239.361L73.1718 226.362L73.1787 226.369ZM68.5797 162.035L47.4045 162.043C46.6447 162.043 45.9254 162.366 45.4243 162.867C44.9232 163.368 44.5999 164.087 44.5999 164.846V225.61C44.5999 226.37 44.9232 227.089 45.4243 227.59C45.9254 228.091 46.6447 228.414 47.4045 228.414H68.5963V162.051L68.5797 162.035Z" fill="#0099FF"/>
</svg>
