<svg width="276" height="276" viewBox="0 0 276 276" fill="none" xmlns="http://www.w3.org/2000/svg">
<path fill-rule="evenodd" clip-rule="evenodd" d="M244.619 242.688H32.3715C31.0657 242.688 30 241.632 30 240.317V152.416C30 151.11 31.0657 150.044 32.3715 150.044C33.6773 150.044 34.743 151.101 34.743 152.416V237.955H242.257V152.416C242.257 151.11 243.313 150.044 244.628 150.044C245.934 150.044 247 151.101 247 152.416V240.317C247 241.623 245.934 242.688 244.628 242.688H244.619Z" fill="#0099FF"/>
<path fill-rule="evenodd" clip-rule="evenodd" d="M64.6218 216.833H212.366V175.904H64.6218V216.833ZM214.738 221.567H62.2499C60.9345 221.567 59.8784 220.511 59.8784 219.195V173.522C59.8784 172.216 60.9346 171.15 62.2499 171.15H214.738C216.044 171.15 217.11 172.207 217.11 173.522V219.195C217.11 220.501 216.044 221.567 214.738 221.567Z" fill="#0099FF"/>
<path fill-rule="evenodd" clip-rule="evenodd" d="M244.619 154.79H32.371C31.6317 154.79 30.9308 154.444 30.4796 153.849C30.0283 153.254 29.8843 152.486 30.0955 151.775L51.5354 76.7416C51.8234 75.7239 52.7547 75.0229 53.8109 75.0229H99.2729C100.579 75.0229 101.644 76.0887 101.644 77.3945C101.644 78.7002 100.579 79.766 99.2729 79.766H55.5953L35.4997 150.068H241.477L221.391 79.766H177.706C176.401 79.766 175.335 78.7098 175.335 77.3945C175.335 76.0887 176.391 75.0229 177.706 75.0229H223.178C224.234 75.0229 225.166 75.7239 225.454 76.7416L246.894 151.775C247.095 152.486 246.951 153.263 246.5 153.849C246.058 154.444 245.357 154.79 244.609 154.79H244.619Z" fill="#0099FF"/>
<path fill-rule="evenodd" clip-rule="evenodd" d="M193.164 117.266H83.8251C82.5194 117.266 81.4536 116.21 81.4536 114.895C81.4536 113.589 82.5098 112.523 83.8251 112.523H193.164C194.479 112.523 195.536 113.589 195.536 114.895C195.536 116.201 194.479 117.266 193.164 117.266Z" fill="#0099FF"/>
<path fill-rule="evenodd" clip-rule="evenodd" d="M138.495 38.7463C118.15 38.7463 101.606 55.299 101.606 75.635C101.606 95.9801 118.149 112.524 138.495 112.524C158.84 112.524 175.384 95.971 175.384 75.635C175.384 55.2899 158.84 38.7463 138.495 38.7463ZM138.495 117.265C115.538 117.265 96.8623 98.5904 96.8623 75.6326C96.8623 52.6747 115.537 34 138.485 34C161.442 34 180.108 52.6747 180.108 75.6326C180.108 98.5904 161.433 117.265 138.485 117.265H138.495Z" fill="#0099FF"/>
<path fill-rule="evenodd" clip-rule="evenodd" d="M214.74 198.732H62.2519C60.9461 198.732 59.8804 197.676 59.8804 196.361C59.8804 195.055 60.9365 193.989 62.2519 193.989H214.74C216.046 193.989 217.111 195.055 217.111 196.361C217.111 197.667 216.046 198.732 214.74 198.732Z" fill="#0099FF"/>
<path d="M132.57 88.314L127.45 79.418H124.666V88.314H121.018V66.074H128.698C130.405 66.074 131.845 66.3726 133.018 66.97C134.213 67.5673 135.098 68.3673 135.674 69.37C136.271 70.3726 136.57 71.4926 136.57 72.73C136.57 74.1806 136.143 75.5033 135.29 76.698C134.458 77.8713 133.167 78.6713 131.418 79.098L136.922 88.314H132.57ZM124.666 76.506H128.698C130.063 76.506 131.087 76.1646 131.77 75.482C132.474 74.7993 132.826 73.882 132.826 72.73C132.826 71.578 132.485 70.682 131.802 70.042C131.119 69.3806 130.085 69.05 128.698 69.05H124.666V76.506ZM156.789 72.698C156.789 73.8286 156.522 74.8953 155.989 75.898C155.456 76.9006 154.602 77.722 153.429 78.362C152.256 78.9806 150.752 79.29 148.917 79.29H144.885V88.314H141.237V66.074H148.917C150.624 66.074 152.064 66.3726 153.237 66.97C154.432 67.546 155.317 68.3353 155.893 69.338C156.49 70.3406 156.789 71.4606 156.789 72.698ZM148.917 76.314C150.304 76.314 151.338 76.0046 152.021 75.386C152.704 74.746 153.045 73.85 153.045 72.698C153.045 70.266 151.669 69.05 148.917 69.05H144.885V76.314H148.917Z" fill="#0099FF"/>
</svg>
