<svg width="276" height="276" viewBox="0 0 276 276" fill="none" xmlns="http://www.w3.org/2000/svg">
<path d="M81.0282 131.932L81.1789 131.938C83.1724 132.13 85.3254 131.633 87.2576 130.701C89.1716 129.777 90.9063 128.41 92.0838 126.802C93.6346 126.58 94.0453 124.461 92.5737 123.726L92.568 123.723C92.076 123.485 91.6195 123.377 91.1833 123.419C90.7418 123.462 90.3784 123.652 90.0668 123.906C89.7633 124.153 89.4932 124.474 89.2357 124.803C89.1389 124.927 89.0448 125.05 88.9498 125.175C88.7798 125.398 88.6068 125.625 88.4094 125.865C87.8126 126.59 87.0735 127.329 85.964 127.872C84.8548 128.415 83.3387 128.779 81.166 128.692C77.2648 128.478 75.3006 126.74 74.018 125.201C73.7363 124.863 73.4885 124.536 73.2546 124.228C73.2171 124.178 73.1799 124.129 73.143 124.08C72.8824 123.737 72.6271 123.408 72.3712 123.149C72.1178 122.892 71.818 122.656 71.4535 122.562C71.064 122.461 70.6797 122.541 70.3098 122.762C69.8628 123.025 69.5915 123.419 69.5197 123.9C69.4516 124.355 69.5697 124.835 69.7804 125.295C70.2017 126.213 71.0757 127.226 72.1884 128.166C74.4165 130.048 77.7906 131.791 81.0282 131.932ZM109.736 82.6203L109.736 82.6201L109.724 82.6252C105.728 84.3439 102.741 88.0098 101.171 91.2233C100.387 92.828 99.9318 94.3704 99.9055 95.5465C99.8925 96.1308 99.9839 96.6846 100.254 97.1083C100.545 97.5646 101.009 97.815 101.586 97.815C102.067 97.815 102.446 97.6173 102.727 97.2825C102.985 96.9749 103.15 96.5647 103.281 96.141C103.394 95.774 103.495 95.3478 103.602 94.8993C103.62 94.8235 103.638 94.7471 103.656 94.6702C103.785 94.1299 103.93 93.5472 104.126 92.9368C104.899 90.5265 106.472 87.6372 111.017 85.6921L111.025 85.6888L111.033 85.6852C111.492 85.4696 111.787 85.114 111.913 84.7023C112.036 84.3021 111.991 83.8811 111.838 83.5245C111.686 83.1681 111.414 82.8454 111.043 82.6585C110.661 82.4661 110.203 82.4337 109.736 82.6203ZM125.006 87.8627C124.655 87.6421 124.22 87.5631 123.755 87.6858L123.746 87.6857L123.677 87.7054C117.52 89.4776 113.158 96.152 113.908 102.484C113.968 102.995 114.21 103.394 114.565 103.646C114.91 103.891 115.329 103.973 115.717 103.927C116.105 103.88 116.493 103.701 116.771 103.383C117.057 103.056 117.202 102.613 117.143 102.102C116.632 97.2364 119.979 92.1845 124.669 90.909L124.678 90.9067L124.686 90.9042C125.182 90.7506 125.523 90.426 125.694 90.0206C125.859 89.6287 125.851 89.1961 125.731 88.8204C125.61 88.4445 125.365 88.0885 125.006 87.8627ZM137.495 97.1784L137.495 97.1543L137.476 97.0901C137.32 96.5604 136.969 96.1926 136.485 96.0169C136.027 95.851 135.495 95.8709 134.959 95.9951C133.885 96.2441 132.602 96.9577 131.374 97.9763C128.92 100.013 126.507 103.424 126.364 107.328C126.335 107.858 126.507 108.304 126.826 108.616C127.138 108.921 127.552 109.063 127.951 109.071C128.746 109.087 129.631 108.554 129.696 107.474L129.697 107.467L129.697 107.46C129.762 105.417 130.297 103.967 131.031 102.894C131.767 101.816 132.726 101.086 133.688 100.52C134.169 100.236 134.647 99.9964 135.099 99.772L135.192 99.7258C135.604 99.5217 136.003 99.3238 136.339 99.1217C136.696 98.9071 137.038 98.6563 137.263 98.3343C137.497 98.0001 137.588 97.6112 137.495 97.1784ZM138.485 119.679L138.484 119.574C138.623 119.565 138.76 119.533 138.893 119.479C139.222 119.344 139.473 119.092 139.674 118.83C139.877 118.567 140.066 118.245 140.253 117.919C140.285 117.862 140.318 117.804 140.351 117.746C140.512 117.464 140.677 117.173 140.866 116.875C141.318 116.16 141.879 115.442 142.698 114.885C143.511 114.33 144.607 113.914 146.159 113.85L146.159 113.851L146.169 113.85C146.688 113.819 147.102 113.591 147.375 113.247C147.641 112.913 147.754 112.495 147.738 112.1C147.722 111.705 147.576 111.297 147.279 110.99C146.973 110.674 146.536 110.496 146.016 110.528L146.011 110.528C142.666 110.762 139.881 112.639 138.267 114.555C137.464 115.509 136.913 116.518 136.754 117.386C136.674 117.822 136.686 118.265 136.861 118.65C137.044 119.053 137.381 119.337 137.83 119.476L138.485 119.679ZM149.709 139.848L149.711 139.853C155.847 155.774 149.659 169.68 139.065 178.391C128.445 187.123 113.495 190.555 102.236 185.593C101.769 185.376 101.302 185.391 100.907 185.578C100.524 185.759 100.24 186.087 100.081 186.449C99.9209 186.812 99.8705 187.245 99.9999 187.657C100.133 188.081 100.446 188.442 100.93 188.654L100.933 188.656C113.92 194.252 130.165 190.325 141.503 180.767C152.864 171.19 159.379 155.89 152.794 138.691C152.612 138.206 152.276 137.878 151.868 137.72C151.471 137.566 151.042 137.588 150.673 137.726C150.305 137.864 149.967 138.13 149.768 138.507C149.564 138.894 149.527 139.363 149.709 139.848ZM91.7976 80.48C91.5069 80.3934 91.176 80.3746 90.8148 80.4498L90.7858 80.4559L90.7577 80.4653C69.519 87.5936 51.4082 106.068 41.2322 130.977C30.5129 157.157 36.2042 175.169 47.0183 183.969C57.6502 192.621 73.1561 192.252 82.24 181.95C88.3328 192.534 98.1356 197.222 109.778 198.944C113.615 206.201 115.087 214.624 113.881 222.729C88.3383 224.671 64.2493 216.739 45.3534 199.825C45.0185 199.498 44.6198 199.342 44.2177 199.349C43.8213 199.356 43.461 199.52 43.1882 199.762C42.6481 200.241 42.3697 201.117 42.8904 201.901L42.8947 201.907C62.8962 231.056 96.8531 248.5 133.589 248.5C192.783 248.5 241.127 203.256 241.486 147.548L241.5 147.551V146.925C241.5 80.4002 174.819 31.1513 103.9 49.298C102.957 49.506 102.622 50.368 102.728 51.0796C102.836 51.797 103.406 52.5252 104.376 52.5253L104.384 52.5252C153.643 51.7259 193.283 88.2711 195.298 134.248C186.135 135.944 178.782 133.507 173.613 130.585C170.988 129.101 168.928 127.491 167.485 126.235C166.763 125.608 166.196 125.068 165.787 124.675C165.74 124.63 165.694 124.586 165.651 124.544C165.508 124.406 165.385 124.288 165.287 124.197C165.236 124.149 165.187 124.105 165.142 124.067C159.468 102.204 144.572 85.8395 129.39 77.6853C121.78 73.5982 114.067 71.5569 107.382 71.9487C100.833 72.3326 95.2581 75.0572 91.7976 80.48ZM42.6452 173.109L50.1562 169.482L50.1563 169.482L50.1649 169.478C50.8333 169.139 51.2467 169.134 51.4983 169.23C51.746 169.325 51.979 169.571 52.1595 170.071C52.5279 171.092 52.5408 172.794 52.3451 174.725C52.0304 177.83 51.2081 181.271 50.8198 182.722C47.5119 180.295 44.7161 177.007 42.6452 173.109ZM80.6361 178.786C80.6081 178.818 80.578 178.852 80.5461 178.888C80.5101 178.929 80.4718 178.972 80.4317 179.018C80.1911 179.29 79.8539 179.665 79.4183 180.104C78.5465 180.984 77.28 182.123 75.6136 183.207C72.5338 185.211 68.084 187.03 62.217 186.665C64.7431 184.801 66.209 181.96 65.9621 178.751L65.9613 178.74L65.96 178.729C65.8979 178.217 65.6553 177.816 65.3052 177.557C64.9633 177.304 64.5459 177.206 64.153 177.237C63.7603 177.268 63.364 177.43 63.0694 177.735C62.7671 178.048 62.5991 178.484 62.6303 178.996L62.631 179.005C62.7515 180.535 61.9091 182.711 60.2958 184.07C59.5007 184.74 58.5314 185.2 57.4126 185.294C56.4044 185.378 55.2434 185.167 53.9445 184.499C54.0301 184.312 54.1089 184.105 54.1823 183.887C54.3293 183.45 54.4642 182.933 54.5876 182.367C54.8345 181.234 55.0414 179.871 55.2051 178.48C55.5319 175.704 55.6921 172.767 55.6448 171.256L55.6448 171.256L55.6444 171.247C55.5285 168.893 54.9342 167.348 53.8683 166.513C52.7939 165.672 51.3936 165.669 49.9666 166.018C48.5315 166.368 46.9481 167.103 45.3918 167.905C44.7558 168.233 44.1289 168.569 43.5137 168.899C42.7657 169.3 42.0349 169.692 41.3259 170.049C36.7316 158.543 38.7576 145.793 44.3074 132.252L44.3078 132.251C53.8662 108.786 70.4727 91.4684 89.9403 84.2135C88.0914 89.1356 88.2778 93.8167 90.0431 97.7416C91.9314 101.94 95.6059 105.228 100.421 107.014L100.423 107.014C119.743 114.124 134.471 131.937 130.764 151.393L130.764 151.395C128.558 163.239 120.545 170.433 111.783 172.702C103.008 174.976 93.5143 172.311 88.2754 164.458L88.2748 164.457C86.6132 161.978 84.8922 160.653 83.2709 160.445C81.5875 160.23 80.2222 161.232 79.3621 162.884C77.686 166.105 77.6912 172.121 80.6361 178.786ZM102.165 193.801L102.164 193.8C89.9582 190.194 84.0259 180.298 82.1396 172.774C81.6688 170.896 81.4536 169.178 81.4532 167.757C81.4527 166.32 81.6716 165.239 82.0206 164.594C82.1924 164.276 82.3772 164.099 82.5487 164.014C82.7086 163.934 82.9056 163.911 83.1698 163.996C83.7432 164.183 84.5568 164.864 85.5538 166.357L85.5539 166.357C91.4316 175.151 103.864 179.063 114.371 175.506C128.485 170.765 135.795 156.729 134.307 141.984C132.817 127.22 122.524 111.735 101.473 103.929C98.9214 102.977 96.332 101.067 94.4713 98.6314C92.6113 96.1966 91.5095 93.2787 91.8477 90.3069C92.5278 84.3918 95.1367 80.2906 98.9652 77.8814C102.808 75.463 107.948 74.7077 113.75 75.6347C125.359 77.489 139.461 86.0587 150.564 101.02L150.565 101.021C169.704 126.716 166.575 158.884 153.696 177.253L153.695 177.255C142.003 194.069 123.227 200.106 102.165 193.801ZM215.426 99.2107L215.436 99.2103L214.847 98.446C214.535 98.0415 214.12 97.837 213.686 97.8196C213.268 97.8027 212.872 97.9609 212.57 98.2034C212.266 98.4462 212.026 98.7969 211.943 99.2069C211.858 99.6296 211.948 100.084 212.256 100.489L212.262 100.496C219.536 109.71 226.251 126.723 226.63 145.943C227.009 165.145 221.063 186.516 203.066 204.491L203.066 204.491C202.701 204.856 202.542 205.295 202.568 205.73C202.592 206.153 202.789 206.533 203.066 206.81C203.343 207.086 203.723 207.283 204.145 207.308C204.58 207.333 205.02 207.174 205.384 206.81C205.384 206.81 205.384 206.81 205.384 206.81L205.031 206.456L215.426 99.2107ZM207.671 90.8099L207.696 90.835H207.902C208.385 90.835 208.838 90.731 209.152 90.422C209.482 90.0978 209.549 89.6595 209.496 89.2457C209.445 88.8368 209.271 88.3831 209.028 87.9109C208.781 87.4328 208.445 86.9061 208.042 86.3458C206.433 84.1115 203.637 81.205 200.584 78.4486C197.529 75.6898 194.184 73.0526 191.462 71.3646C190.107 70.5245 188.873 69.8984 187.889 69.6227C187.4 69.4856 186.927 69.4217 186.514 69.4951C186.076 69.5728 185.702 69.8084 185.493 70.2349C185.124 70.9752 185.337 72.0101 186.162 72.4225C194.33 76.5048 201.351 82.6241 206.5 90.073L206.505 90.0802L206.51 90.0872C206.813 90.4941 207.227 90.7465 207.671 90.8099ZM156.555 178.962C165.699 165.626 169.399 147.489 166.242 129.685C174.288 136.279 185.08 139.287 195.295 137.558C195.001 181.746 161.217 217.21 117.218 222.357C118.284 214.511 116.955 206.469 113.614 199.336C132.485 201.022 147.306 192.451 156.555 178.962ZM133.578 245.166C102.605 245.166 73.7711 232.459 53.9879 210.725C114.028 250.759 198.63 209.847 198.63 137.786C198.63 92.4769 163.204 55.1266 117.544 49.8261C179.967 40.5883 238.154 85.9951 238.154 146.914C238.154 201.041 191.251 245.166 133.578 245.166Z" fill="#0099FF" stroke="#0099FF"/>
</svg>
