<svg width="276" height="276" viewBox="0 0 276 276" fill="none" xmlns="http://www.w3.org/2000/svg">
<path d="M169.635 93.8369L169.636 93.8371C170.229 94.032 170.856 94.134 171.443 94.134C172.332 94.134 173.249 93.9395 174.074 93.5058C175.459 92.8171 176.476 91.5943 176.967 90.1126C177.46 88.6275 177.332 87.0486 176.637 85.6662C175.948 84.2808 174.725 83.263 173.243 82.772C171.758 82.2799 170.179 82.4072 168.797 83.1026C167.411 83.7912 166.393 85.0143 165.902 86.4964C165.41 87.9815 165.538 89.5605 166.233 90.943L166.233 90.943L166.235 90.9462C166.972 92.3268 168.159 93.3451 169.635 93.8369ZM169.154 87.5604L169.155 87.5598C169.366 86.9485 169.788 86.4347 170.363 86.1396L170.363 86.1396L170.365 86.1384C170.698 85.9602 171.087 85.8668 171.452 85.8668C171.697 85.8668 171.966 85.8987 172.199 85.989L172.199 85.9891L172.204 85.9908C172.816 86.2025 173.33 86.6243 173.625 87.199L173.625 87.199L173.625 87.2004C173.927 87.7722 173.96 88.4323 173.773 89.0432C173.561 89.6535 173.139 90.1663 172.565 90.461L172.565 90.461L172.564 90.4617C171.992 90.763 171.332 90.7962 170.721 90.6089C170.111 90.397 169.598 89.9754 169.303 89.4016L169.303 89.4015L169.303 89.4001C168.999 88.824 168.945 88.1563 169.154 87.5604Z" fill="#0099FF" stroke="#0099FF" stroke-width="0.3"/>
<mask id="path-2-outside-1_330_599" maskUnits="userSpaceOnUse" x="36" y="41.4473" width="204" height="204" fill="black">
<rect fill="white" x="36" y="41.4473" width="204" height="204"/>
<path fill-rule="evenodd" clip-rule="evenodd" d="M235.802 241.371H237.439C238.307 241.371 239.008 242.073 239 242.875C239 243.71 238.33 244.413 237.462 244.413H38.5651C37.7301 244.413 37.0274 243.743 37.0274 242.875C37.0274 242.04 37.6971 241.338 38.5651 241.338L40.202 241.329C40.3591 239.535 40.7476 237.774 41.4173 236.071C43.6577 230.466 48.37 226.457 54.0495 225.076V146.804H38.5652C37.9866 146.804 37.4409 146.515 37.1846 146.002C36.9284 145.523 36.9284 144.911 37.2508 144.431L54.2811 118.011C54.5704 117.564 55.083 117.308 55.5955 117.308H71.1045L65.4003 106.081C63.0938 101.526 64.9209 95.9785 69.443 93.6721L168.176 43.4568C170.35 42.3325 172.856 42.1423 175.195 42.9112C177.534 43.6801 179.428 45.3171 180.552 47.4995L210.571 106.601C211.695 108.776 211.885 111.281 211.116 113.62C210.67 115.067 209.868 116.315 208.81 117.34H219.168H219.202C219.392 117.34 219.59 117.373 219.747 117.44C219.813 117.44 219.846 117.473 219.879 117.506C219.908 117.525 219.939 117.544 219.971 117.563C220.049 117.609 220.132 117.659 220.202 117.729C220.217 117.756 220.24 117.777 220.263 117.8C220.289 117.825 220.316 117.851 220.334 117.886C220.35 117.913 220.372 117.935 220.395 117.957C220.422 117.982 220.449 118.008 220.466 118.043L237.497 144.464C237.819 144.91 237.819 145.522 237.563 146.035C237.273 146.514 236.761 146.837 236.182 146.837H220.698V224.861C226.923 225.944 232.181 230.119 234.587 236.113C235.256 237.807 235.645 239.577 235.802 241.371ZM220.731 124.134V143.727H233.363L220.731 124.134ZM217.623 241.37V145.265L217.522 145.263V120.379H183.503V158.664C183.503 159.177 183.247 159.656 182.834 159.946C182.577 160.136 182.288 160.235 181.966 160.235C181.776 160.235 181.61 160.202 181.42 160.136L166.506 154.456L151.592 160.136C151.105 160.334 150.559 160.268 150.146 159.979C149.732 159.69 149.476 159.21 149.476 158.697V120.38H115.457V219.148C117.64 217.635 119.5 217.833 120.847 218.503C123.253 219.66 122.608 222.967 121.84 225.24C124.915 226.133 127.188 228.961 127.287 232.325C127.304 232.325 127.329 232.334 127.354 232.342C127.378 232.35 127.403 232.358 127.42 232.358C131.619 233.607 134.571 237.137 135.149 241.37H217.623ZM82.5304 111.146L85.6389 117.272L113.936 117.264H119.549C119.497 117.175 119.443 117.084 119.388 116.991C119.363 116.948 119.337 116.905 119.311 116.862H156.676C156.598 116.999 156.518 117.136 156.437 117.272H180.619L189.853 112.593C189.208 110.601 189.184 108.451 189.853 106.434C190.523 104.417 191.771 102.681 193.474 101.465L174.592 64.3293C170.516 65.677 165.994 64.2053 163.465 60.7084L86.1513 100.018C86.7961 102.01 86.8209 104.16 86.1513 106.177C85.4816 108.194 84.2334 109.93 82.5304 111.146ZM180.461 120.38H152.626L152.634 156.424L166.002 151.323C166.159 151.257 166.357 151.224 166.548 151.224C166.738 151.224 166.903 151.257 167.093 151.323L180.461 156.424V120.38ZM70.8556 96.4634C67.8712 97.968 66.6559 101.655 68.1936 104.673L74.6342 117.279H82.1738L79.1315 111.285C78.9331 110.93 78.9 110.483 79.0323 110.095C79.1563 109.706 79.4457 109.384 79.8011 109.194C81.4381 108.359 82.6203 106.945 83.199 105.217C83.7446 103.489 83.6206 101.629 82.7856 99.9922C82.5872 99.6367 82.5542 99.1903 82.6864 98.8018C82.8104 98.4132 83.0998 98.0908 83.4553 97.9006L163.332 57.2768C164.1 56.8882 165.035 57.2106 165.448 57.9464C167.143 61.3194 171.285 62.667 174.649 60.964C175.005 60.7655 175.451 60.7325 175.84 60.8647C176.228 60.9887 176.551 61.2781 176.741 61.6336L196.863 101.341C197.252 102.11 196.962 103.036 196.193 103.424C194.556 104.259 193.374 105.673 192.796 107.401C192.25 109.129 192.374 110.989 193.209 112.626C193.407 112.981 193.44 113.428 193.308 113.816C193.184 114.205 192.895 114.527 192.539 114.717L187.472 117.28H202.956L205.138 116.156C206.61 115.412 207.668 114.13 208.181 112.593C208.693 111.055 208.561 109.393 207.825 107.946L177.806 48.9102C177.062 47.4386 175.781 46.3804 174.243 45.8679C173.631 45.6777 172.995 45.5785 172.35 45.5785C171.416 45.5785 170.457 45.8017 169.589 46.2482L70.8556 96.4634ZM111.058 120.38H56.4212L41.3833 143.694H96.0197L111.058 120.38ZM96.8968 146.835H57.1322L57.1321 224.702L57.1995 224.697C57.6211 224.665 58.0226 224.635 58.4465 224.635C63.8945 224.635 69.0284 227.041 72.4923 231.175C74.1953 229.695 76.6258 229.091 78.8414 229.505C78.8083 229.215 78.8083 228.959 78.8083 228.67C78.8083 218.799 86.8523 210.78 96.6983 210.78C103.403 210.78 109.339 214.401 112.381 219.981V124.132L98.2113 146.132C97.922 146.579 97.4094 146.835 96.8968 146.835ZM44.3018 237.269C43.7892 238.583 43.442 239.956 43.3097 241.369L132.04 241.369C131.495 238.517 129.412 236.178 126.559 235.31C126.237 235.186 125.923 235.12 125.567 235.053C124.832 234.929 124.253 234.285 124.253 233.516V232.491C124.253 230.374 122.773 228.605 120.789 228.126C120.5 228.704 120.153 229.316 119.574 230.085C119.284 230.506 118.805 230.73 118.326 230.73C118.011 230.73 117.689 230.63 117.4 230.44C116.722 229.928 116.565 228.961 117.077 228.258C117.879 227.134 118.111 226.654 118.268 226.042V226.009C118.268 225.951 118.268 225.918 118.301 225.852C119.582 222.711 119.524 221.396 119.392 221.14C117.532 220.239 114.936 223.926 113.911 225.563C113.589 226.075 112.952 226.365 112.34 226.265C111.737 226.133 111.224 225.687 111.092 225.075C109.521 218.445 103.618 213.823 96.7236 213.823C88.5804 213.823 81.942 220.462 81.942 228.605C81.942 229.663 82.0742 230.622 82.2644 231.523C82.3884 232.168 82.1652 232.805 81.6195 233.16C81.0739 233.516 80.3712 233.516 79.8586 233.16C77.9655 231.879 75.1133 232.391 73.7988 234.284C73.5095 234.698 73.03 234.954 72.5174 234.954H72.2942C71.7816 234.954 71.3021 234.698 71.0128 234.284C68.1853 230.151 63.5062 227.679 58.4716 227.679C52.1887 227.679 46.6414 231.465 44.3018 237.269ZM220.73 228.059V241.369L220.73 241.336L232.692 241.328C232.568 239.922 232.213 238.542 231.7 237.227C229.774 232.449 225.632 229.084 220.73 228.059Z"/>
</mask>
<path fill-rule="evenodd" clip-rule="evenodd" d="M235.802 241.371H237.439C238.307 241.371 239.008 242.073 239 242.875C239 243.71 238.33 244.413 237.462 244.413H38.5651C37.7301 244.413 37.0274 243.743 37.0274 242.875C37.0274 242.04 37.6971 241.338 38.5651 241.338L40.202 241.329C40.3591 239.535 40.7476 237.774 41.4173 236.071C43.6577 230.466 48.37 226.457 54.0495 225.076V146.804H38.5652C37.9866 146.804 37.4409 146.515 37.1846 146.002C36.9284 145.523 36.9284 144.911 37.2508 144.431L54.2811 118.011C54.5704 117.564 55.083 117.308 55.5955 117.308H71.1045L65.4003 106.081C63.0938 101.526 64.9209 95.9785 69.443 93.6721L168.176 43.4568C170.35 42.3325 172.856 42.1423 175.195 42.9112C177.534 43.6801 179.428 45.3171 180.552 47.4995L210.571 106.601C211.695 108.776 211.885 111.281 211.116 113.62C210.67 115.067 209.868 116.315 208.81 117.34H219.168H219.202C219.392 117.34 219.59 117.373 219.747 117.44C219.813 117.44 219.846 117.473 219.879 117.506C219.908 117.525 219.939 117.544 219.971 117.563C220.049 117.609 220.132 117.659 220.202 117.729C220.217 117.756 220.24 117.777 220.263 117.8C220.289 117.825 220.316 117.851 220.334 117.886C220.35 117.913 220.372 117.935 220.395 117.957C220.422 117.982 220.449 118.008 220.466 118.043L237.497 144.464C237.819 144.91 237.819 145.522 237.563 146.035C237.273 146.514 236.761 146.837 236.182 146.837H220.698V224.861C226.923 225.944 232.181 230.119 234.587 236.113C235.256 237.807 235.645 239.577 235.802 241.371ZM220.731 124.134V143.727H233.363L220.731 124.134ZM217.623 241.37V145.265L217.522 145.263V120.379H183.503V158.664C183.503 159.177 183.247 159.656 182.834 159.946C182.577 160.136 182.288 160.235 181.966 160.235C181.776 160.235 181.61 160.202 181.42 160.136L166.506 154.456L151.592 160.136C151.105 160.334 150.559 160.268 150.146 159.979C149.732 159.69 149.476 159.21 149.476 158.697V120.38H115.457V219.148C117.64 217.635 119.5 217.833 120.847 218.503C123.253 219.66 122.608 222.967 121.84 225.24C124.915 226.133 127.188 228.961 127.287 232.325C127.304 232.325 127.329 232.334 127.354 232.342C127.378 232.35 127.403 232.358 127.42 232.358C131.619 233.607 134.571 237.137 135.149 241.37H217.623ZM82.5304 111.146L85.6389 117.272L113.936 117.264H119.549C119.497 117.175 119.443 117.084 119.388 116.991C119.363 116.948 119.337 116.905 119.311 116.862H156.676C156.598 116.999 156.518 117.136 156.437 117.272H180.619L189.853 112.593C189.208 110.601 189.184 108.451 189.853 106.434C190.523 104.417 191.771 102.681 193.474 101.465L174.592 64.3293C170.516 65.677 165.994 64.2053 163.465 60.7084L86.1513 100.018C86.7961 102.01 86.8209 104.16 86.1513 106.177C85.4816 108.194 84.2334 109.93 82.5304 111.146ZM180.461 120.38H152.626L152.634 156.424L166.002 151.323C166.159 151.257 166.357 151.224 166.548 151.224C166.738 151.224 166.903 151.257 167.093 151.323L180.461 156.424V120.38ZM70.8556 96.4634C67.8712 97.968 66.6559 101.655 68.1936 104.673L74.6342 117.279H82.1738L79.1315 111.285C78.9331 110.93 78.9 110.483 79.0323 110.095C79.1563 109.706 79.4457 109.384 79.8011 109.194C81.4381 108.359 82.6203 106.945 83.199 105.217C83.7446 103.489 83.6206 101.629 82.7856 99.9922C82.5872 99.6367 82.5542 99.1903 82.6864 98.8018C82.8104 98.4132 83.0998 98.0908 83.4553 97.9006L163.332 57.2768C164.1 56.8882 165.035 57.2106 165.448 57.9464C167.143 61.3194 171.285 62.667 174.649 60.964C175.005 60.7655 175.451 60.7325 175.84 60.8647C176.228 60.9887 176.551 61.2781 176.741 61.6336L196.863 101.341C197.252 102.11 196.962 103.036 196.193 103.424C194.556 104.259 193.374 105.673 192.796 107.401C192.25 109.129 192.374 110.989 193.209 112.626C193.407 112.981 193.44 113.428 193.308 113.816C193.184 114.205 192.895 114.527 192.539 114.717L187.472 117.28H202.956L205.138 116.156C206.61 115.412 207.668 114.13 208.181 112.593C208.693 111.055 208.561 109.393 207.825 107.946L177.806 48.9102C177.062 47.4386 175.781 46.3804 174.243 45.8679C173.631 45.6777 172.995 45.5785 172.35 45.5785C171.416 45.5785 170.457 45.8017 169.589 46.2482L70.8556 96.4634ZM111.058 120.38H56.4212L41.3833 143.694H96.0197L111.058 120.38ZM96.8968 146.835H57.1322L57.1321 224.702L57.1995 224.697C57.6211 224.665 58.0226 224.635 58.4465 224.635C63.8945 224.635 69.0284 227.041 72.4923 231.175C74.1953 229.695 76.6258 229.091 78.8414 229.505C78.8083 229.215 78.8083 228.959 78.8083 228.67C78.8083 218.799 86.8523 210.78 96.6983 210.78C103.403 210.78 109.339 214.401 112.381 219.981V124.132L98.2113 146.132C97.922 146.579 97.4094 146.835 96.8968 146.835ZM44.3018 237.269C43.7892 238.583 43.442 239.956 43.3097 241.369L132.04 241.369C131.495 238.517 129.412 236.178 126.559 235.31C126.237 235.186 125.923 235.12 125.567 235.053C124.832 234.929 124.253 234.285 124.253 233.516V232.491C124.253 230.374 122.773 228.605 120.789 228.126C120.5 228.704 120.153 229.316 119.574 230.085C119.284 230.506 118.805 230.73 118.326 230.73C118.011 230.73 117.689 230.63 117.4 230.44C116.722 229.928 116.565 228.961 117.077 228.258C117.879 227.134 118.111 226.654 118.268 226.042V226.009C118.268 225.951 118.268 225.918 118.301 225.852C119.582 222.711 119.524 221.396 119.392 221.14C117.532 220.239 114.936 223.926 113.911 225.563C113.589 226.075 112.952 226.365 112.34 226.265C111.737 226.133 111.224 225.687 111.092 225.075C109.521 218.445 103.618 213.823 96.7236 213.823C88.5804 213.823 81.942 220.462 81.942 228.605C81.942 229.663 82.0742 230.622 82.2644 231.523C82.3884 232.168 82.1652 232.805 81.6195 233.16C81.0739 233.516 80.3712 233.516 79.8586 233.16C77.9655 231.879 75.1133 232.391 73.7988 234.284C73.5095 234.698 73.03 234.954 72.5174 234.954H72.2942C71.7816 234.954 71.3021 234.698 71.0128 234.284C68.1853 230.151 63.5062 227.679 58.4716 227.679C52.1887 227.679 46.6414 231.465 44.3018 237.269ZM220.73 228.059V241.369L220.73 241.336L232.692 241.328C232.568 239.922 232.213 238.542 231.7 237.227C229.774 232.449 225.632 229.084 220.73 228.059Z" fill="#0099FF"/>
<path d="M137.745 117.065L137.802 117.204L137.814 117.198L137.745 117.065ZM141.755 117.189L141.889 117.122L141.889 117.122L141.755 117.189ZM141.812 117.281L141.935 117.195L141.935 117.195L141.812 117.281ZM141.854 117.346V117.496L141.855 117.496L141.854 117.346ZM123.286 117.346L123.283 117.496H123.286V117.346ZM152.684 117.338V117.488L152.687 117.488L152.684 117.338ZM135.978 116.977C136.284 117.23 136.661 117.372 137.043 117.372V117.072C136.736 117.072 136.425 116.957 136.17 116.746L135.978 116.977ZM137.043 117.372C137.292 117.372 137.568 117.299 137.802 117.204L137.689 116.926C137.476 117.013 137.24 117.072 137.043 117.072V117.372ZM137.814 117.198L138.212 116.995L138.075 116.728L137.677 116.931L137.814 117.198ZM141.457 116.929L141.621 117.256L141.889 117.122L141.725 116.794L141.457 116.929ZM141.621 117.256C141.645 117.305 141.67 117.34 141.689 117.367L141.935 117.195C141.916 117.168 141.903 117.149 141.889 117.122L141.621 117.256ZM141.689 117.367C141.703 117.387 141.714 117.402 141.724 117.42L141.985 117.272C141.967 117.24 141.949 117.215 141.935 117.195L141.689 117.367ZM141.854 117.196H123.286V117.496H141.854V117.196ZM152.904 116.776C152.793 116.935 152.68 117.092 152.564 117.248L152.805 117.427C152.922 117.269 153.037 117.109 153.15 116.947L152.904 116.776ZM152.684 117.188H144.417V117.488H152.684V117.188ZM144.548 117.411C144.64 117.249 144.714 117.078 144.764 116.903L144.475 116.821C144.433 116.97 144.369 117.119 144.287 117.264L144.548 117.411ZM156.435 117.122L152.682 117.188L152.687 117.488L156.44 117.422L156.435 117.122ZM144.417 117.188L141.854 117.196L141.855 117.496L144.418 117.488L144.417 117.188ZM123.29 117.196L119.553 117.114L119.546 117.414L123.283 117.496L123.29 117.196ZM85.6386 117.122L82.1735 117.129L82.1741 117.429L85.6392 117.422L85.6386 117.122ZM74.633 117.129L71.1033 117.158L71.1058 117.458L74.6354 117.429L74.633 117.129ZM187.472 117.13L180.619 117.122L180.619 117.422L187.471 117.43L187.472 117.13ZM208.811 117.19L202.957 117.13L202.954 117.43L208.808 117.49L208.811 117.19ZM235.802 241.371L235.503 241.397L235.527 241.671H235.802V241.371ZM239 242.875L238.7 242.872V242.875H239ZM38.5651 241.338L38.5651 241.638L38.5666 241.638L38.5651 241.338ZM40.202 241.329L40.2035 241.629L40.477 241.628L40.5009 241.355L40.202 241.329ZM41.4173 236.071L41.1387 235.96L41.1381 235.962L41.4173 236.071ZM54.0495 225.076L54.1204 225.368L54.3495 225.312V225.076H54.0495ZM54.0495 146.804H54.3495V146.504H54.0495V146.804ZM37.1846 146.002L37.4531 145.868L37.4492 145.861L37.1846 146.002ZM37.2508 144.431L37.4998 144.599L37.5029 144.594L37.2508 144.431ZM54.2811 118.011L54.0293 117.847L54.0289 117.848L54.2811 118.011ZM71.1045 117.308V117.608H71.5935L71.372 117.172L71.1045 117.308ZM65.4003 106.081L65.1326 106.217L65.1328 106.217L65.4003 106.081ZM69.443 93.6721L69.307 93.4047L69.3067 93.4049L69.443 93.6721ZM168.176 43.4568L168.312 43.7242L168.314 43.7233L168.176 43.4568ZM180.552 47.4995L180.819 47.3636L180.819 47.3621L180.552 47.4995ZM210.571 106.601L210.303 106.737L210.304 106.739L210.571 106.601ZM211.116 113.62L210.831 113.527L210.83 113.532L211.116 113.62ZM208.81 117.34L208.601 117.125L208.069 117.64H208.81V117.34ZM219.747 117.44L219.631 117.716L219.687 117.74H219.747V117.44ZM219.879 117.506L219.667 117.718L219.688 117.739L219.713 117.755L219.879 117.506ZM219.971 117.563L219.817 117.82L219.817 117.82L219.971 117.563ZM220.202 117.729L220.462 117.58L220.442 117.545L220.414 117.517L220.202 117.729ZM220.263 117.8L220.056 118.016L220.056 118.016L220.263 117.8ZM220.334 117.886L220.066 118.02L220.069 118.028L220.074 118.035L220.334 117.886ZM220.395 117.957L220.602 117.74L220.602 117.74L220.395 117.957ZM220.466 118.043L220.198 118.177L220.205 118.192L220.214 118.206L220.466 118.043ZM237.497 144.464L237.244 144.626L237.249 144.633L237.253 144.64L237.497 144.464ZM237.563 146.035L237.82 146.19L237.826 146.179L237.831 146.169L237.563 146.035ZM220.698 146.837V146.537H220.398V146.837H220.698ZM220.698 224.861H220.398V225.113L220.647 225.157L220.698 224.861ZM234.587 236.113L234.866 236.002L234.865 236.001L234.587 236.113ZM220.731 143.727H220.431V144.027H220.731V143.727ZM220.731 124.134L220.983 123.972L220.431 123.115V124.134H220.731ZM233.363 143.727V144.027H233.914L233.615 143.565L233.363 143.727ZM217.623 145.265H217.923V144.969L217.627 144.965L217.623 145.265ZM217.623 241.37V241.67H217.923V241.37H217.623ZM217.522 145.263H217.222V145.559L217.518 145.563L217.522 145.263ZM217.522 120.379H217.822V120.079H217.522V120.379ZM183.503 120.379V120.079H183.203V120.379H183.503ZM182.834 159.946L182.662 159.7L182.655 159.705L182.834 159.946ZM181.42 160.136L181.313 160.416L181.322 160.419L181.42 160.136ZM166.506 154.456L166.613 154.176L166.506 154.135L166.399 154.176L166.506 154.456ZM151.592 160.136L151.486 159.856L151.479 159.858L151.592 160.136ZM150.146 159.979L150.318 159.733L150.318 159.733L150.146 159.979ZM149.476 120.38H149.776V120.08H149.476V120.38ZM115.457 120.38V120.08H115.157V120.38H115.457ZM115.457 219.148H115.157V219.721L115.628 219.394L115.457 219.148ZM120.847 218.503L120.714 218.771L120.717 218.773L120.847 218.503ZM121.84 225.24L121.555 225.144L121.455 225.441L121.756 225.529L121.84 225.24ZM127.287 232.325L126.988 232.334L126.996 232.625H127.287V232.325ZM127.42 232.358L127.505 232.071L127.463 232.058H127.42V232.358ZM135.149 241.37L134.852 241.41L134.888 241.67H135.149V241.37ZM85.6389 117.272L85.3714 117.407L85.4547 117.572L85.639 117.572L85.6389 117.272ZM82.5304 111.146L82.3561 110.902L82.1461 111.051L82.2628 111.281L82.5304 111.146ZM113.936 117.264L113.936 116.964L113.936 116.964L113.936 117.264ZM119.549 117.264V117.564H120.073L119.808 117.112L119.549 117.264ZM119.388 116.991L119.13 117.144L119.13 117.144L119.388 116.991ZM119.311 116.862V116.562H118.786L119.053 117.014L119.311 116.862ZM156.676 116.862L156.937 117.01L157.191 116.562H156.676V116.862ZM156.437 117.272L156.179 117.119L155.91 117.572H156.437V117.272ZM180.619 117.272V117.572H180.691L180.755 117.54L180.619 117.272ZM189.853 112.593L189.989 112.861L190.218 112.745L190.139 112.501L189.853 112.593ZM189.853 106.434L189.569 106.34L189.569 106.34L189.853 106.434ZM193.474 101.465L193.649 101.71L193.859 101.56L193.742 101.329L193.474 101.465ZM174.592 64.3293L174.86 64.1934L174.743 63.9636L174.498 64.0445L174.592 64.3293ZM163.465 60.7084L163.708 60.5326L163.557 60.3247L163.329 60.441L163.465 60.7084ZM86.1513 100.018L86.0153 99.7506L85.787 99.8667L85.8658 100.11L86.1513 100.018ZM86.1513 106.177L85.8665 106.083L85.8665 106.083L86.1513 106.177ZM152.626 120.38V120.08H152.326L152.326 120.38L152.626 120.38ZM180.461 120.38H180.761V120.08H180.461V120.38ZM152.634 156.424L152.334 156.424L152.334 156.86L152.741 156.704L152.634 156.424ZM166.002 151.323L166.109 151.604L166.118 151.6L166.002 151.323ZM167.093 151.323L167.2 151.043L167.192 151.04L167.093 151.323ZM180.461 156.424L180.354 156.704L180.761 156.86V156.424H180.461ZM68.1936 104.673L67.9263 104.809L67.9264 104.809L68.1936 104.673ZM70.8556 96.4634L70.9906 96.7313L70.9916 96.7308L70.8556 96.4634ZM74.6342 117.279L74.3671 117.415L74.4506 117.579H74.6342V117.279ZM82.1738 117.279V117.579H82.6625L82.4413 117.143L82.1738 117.279ZM79.1315 111.285L79.3992 111.149L79.3935 111.139L79.1315 111.285ZM79.0323 110.095L79.3163 110.191L79.3181 110.186L79.0323 110.095ZM79.8011 109.194L79.6648 108.926L79.6596 108.929L79.8011 109.194ZM83.199 105.217L83.4835 105.312L83.4851 105.307L83.199 105.217ZM82.7856 99.9922L83.0531 99.8558L83.0476 99.846L82.7856 99.9922ZM82.6864 98.8018L82.9705 98.8984L82.9722 98.893L82.6864 98.8018ZM83.4553 97.9006L83.3192 97.6332L83.3138 97.6361L83.4553 97.9006ZM163.332 57.2768L163.196 57.009L163.196 57.0094L163.332 57.2768ZM165.448 57.9464L165.716 57.8116L165.71 57.7995L165.448 57.9464ZM174.649 60.964L174.785 61.2318L174.796 61.2259L174.649 60.964ZM175.84 60.8647L175.743 61.1488L175.749 61.1505L175.84 60.8647ZM176.741 61.6336L177.009 61.4979L177.005 61.4921L176.741 61.6336ZM196.863 101.341L197.131 101.206L197.131 101.205L196.863 101.341ZM196.193 103.424L196.058 103.157L196.057 103.157L196.193 103.424ZM192.796 107.401L192.511 107.306L192.509 107.311L192.796 107.401ZM193.209 112.626L192.941 112.762L192.947 112.772L193.209 112.626ZM193.308 113.816L193.024 113.72L193.022 113.725L193.308 113.816ZM192.539 114.717L192.675 114.985L192.681 114.982L192.539 114.717ZM187.472 117.28L187.336 117.012L187.472 117.58V117.28ZM202.956 117.28V117.58H203.029L203.093 117.547L202.956 117.28ZM205.138 116.156L205.003 115.888L205.001 115.889L205.138 116.156ZM208.181 112.593L207.896 112.498L207.896 112.498L208.181 112.593ZM207.825 107.946L207.558 108.082L207.558 108.082L207.825 107.946ZM177.806 48.9102L177.539 49.0455L177.539 49.0461L177.806 48.9102ZM174.243 45.8679L174.338 45.5832L174.332 45.5814L174.243 45.8679ZM169.589 46.2482L169.725 46.5156L169.726 46.5149L169.589 46.2482ZM56.4212 120.38V120.08H56.2577L56.1691 120.218L56.4212 120.38ZM111.058 120.38L111.31 120.543L111.608 120.08H111.058V120.38ZM41.3833 143.694L41.1312 143.532L40.8328 143.994H41.3833V143.694ZM96.0197 143.694V143.994H96.1832L96.2718 143.857L96.0197 143.694ZM57.1322 146.835V146.535H56.8322L56.8322 146.835L57.1322 146.835ZM57.1321 224.702L56.8321 224.702L56.8321 225.025L57.1542 225.001L57.1321 224.702ZM57.1995 224.697L57.2216 224.996L57.2217 224.996L57.1995 224.697ZM72.4923 231.175L72.2623 231.367L72.4585 231.601L72.689 231.401L72.4923 231.175ZM78.8414 229.505L78.7864 229.8L79.1856 229.874L79.1395 229.471L78.8414 229.505ZM112.381 219.981L112.118 220.125L112.681 219.981H112.381ZM112.381 124.132H112.681V123.113L112.129 123.97L112.381 124.132ZM98.2113 146.132L98.463 146.295L98.4635 146.295L98.2113 146.132ZM43.3097 241.369L43.011 241.341L42.9804 241.669L43.3097 241.669L43.3097 241.369ZM44.3018 237.269L44.0235 237.157L44.0223 237.16L44.3018 237.269ZM132.04 241.369L132.04 241.669L132.403 241.669L132.335 241.313L132.04 241.369ZM126.559 235.31L126.452 235.59L126.462 235.594L126.472 235.597L126.559 235.31ZM125.567 235.053L125.622 234.758L125.617 234.758L125.567 235.053ZM120.789 228.126L120.86 227.834L120.628 227.778L120.521 227.991L120.789 228.126ZM119.574 230.085L119.334 229.904L119.326 229.915L119.574 230.085ZM117.4 230.44L117.219 230.68L117.227 230.686L117.235 230.691L117.4 230.44ZM117.077 228.258L117.32 228.435L117.321 228.432L117.077 228.258ZM118.268 226.042L118.558 226.117L118.568 226.08V226.042H118.268ZM118.301 225.852L118.569 225.986L118.574 225.976L118.578 225.965L118.301 225.852ZM119.392 221.14L119.659 221.002L119.613 220.913L119.523 220.87L119.392 221.14ZM113.911 225.563L114.165 225.722L114.165 225.722L113.911 225.563ZM112.34 226.265L112.276 226.558L112.284 226.56L112.292 226.561L112.34 226.265ZM111.092 225.075L111.385 225.011L111.384 225.006L111.092 225.075ZM82.2644 231.523L82.559 231.467L82.5579 231.461L82.2644 231.523ZM81.6195 233.16L81.7833 233.411L81.7833 233.411L81.6195 233.16ZM79.8586 233.16L80.0296 232.914L80.0268 232.912L79.8586 233.16ZM73.7988 234.284L74.0446 234.456L74.0452 234.456L73.7988 234.284ZM71.0128 234.284L70.7652 234.454L70.767 234.456L71.0128 234.284ZM220.73 241.369H220.43L221.03 241.37L220.73 241.369ZM220.73 228.059L220.791 227.765L220.43 227.69V228.059H220.73ZM220.73 241.336L220.73 241.036L220.431 241.036L220.43 241.335L220.73 241.336ZM232.692 241.328L232.693 241.628L233.02 241.628L232.991 241.301L232.692 241.328ZM231.7 237.227L231.98 237.118L231.979 237.115L231.7 237.227ZM237.439 241.071H235.802V241.671H237.439V241.071ZM239.3 242.878C239.31 241.9 238.464 241.071 237.439 241.071V241.671C238.15 241.671 238.706 242.247 238.7 242.872L239.3 242.878ZM237.462 244.713C238.5 244.713 239.3 243.872 239.3 242.875H238.7C238.7 243.549 238.16 244.113 237.462 244.113V244.713ZM38.5651 244.713H237.462V244.113H38.5651V244.713ZM36.7274 242.875C36.7274 243.913 37.5687 244.713 38.5651 244.713V244.113C37.8916 244.113 37.3274 243.573 37.3274 242.875H36.7274ZM38.5651 241.038C37.5272 241.038 36.7274 241.879 36.7274 242.875H37.3274C37.3274 242.202 37.8669 241.638 38.5651 241.638V241.038ZM40.2005 241.029L38.5636 241.038L38.5666 241.638L40.2035 241.629L40.2005 241.029ZM41.1381 235.962C40.457 237.694 40.0625 239.483 39.9032 241.303L40.5009 241.355C40.6557 239.587 41.0383 237.855 41.6965 236.181L41.1381 235.962ZM53.9786 224.785C48.2054 226.188 43.4153 230.264 41.1387 235.96L41.6958 236.183C43.9 230.668 48.5346 226.725 54.1204 225.368L53.9786 224.785ZM53.7495 146.804V225.076H54.3495V146.804H53.7495ZM38.5652 147.104H54.0495V146.504H38.5652V147.104ZM36.9163 146.136C37.2312 146.766 37.8914 147.104 38.5652 147.104V146.504C38.0817 146.504 37.6507 146.263 37.453 145.868L36.9163 146.136ZM37.0018 144.264C36.6123 144.843 36.616 145.575 36.9201 146.144L37.4492 145.861C37.2407 145.471 37.2445 144.978 37.4997 144.599L37.0018 144.264ZM54.0289 117.848L36.9986 144.269L37.5029 144.594L54.5332 118.173L54.0289 117.848ZM55.5955 117.008C54.988 117.008 54.3775 117.31 54.0293 117.847L54.5328 118.174C54.7633 117.818 55.1779 117.608 55.5955 117.608V117.008ZM71.1045 117.008H55.5955V117.608H71.1045V117.008ZM65.1328 106.217L70.8371 117.444L71.372 117.172L65.6677 105.945L65.1328 106.217ZM69.3067 93.4049C64.6377 95.7862 62.7513 101.513 65.1326 106.217L65.6679 105.946C63.4364 101.538 65.2041 96.1708 69.5793 93.9394L69.3067 93.4049ZM168.04 43.1894L69.307 93.4047L69.579 93.9395L168.312 43.7242L168.04 43.1894ZM175.289 42.6262C172.874 41.8325 170.285 42.0285 168.038 43.1903L168.314 43.7233C170.416 42.6365 172.837 42.4521 175.101 43.1962L175.289 42.6262ZM180.819 47.3621C179.659 45.1109 177.704 43.4201 175.289 42.6262L175.101 43.1962C177.365 43.9401 179.196 45.5233 180.285 47.6369L180.819 47.3621ZM210.838 106.466L180.819 47.3636L180.284 47.6354L210.303 106.737L210.838 106.466ZM211.401 113.714C212.195 111.299 211.999 108.71 210.837 106.464L210.304 106.739C211.391 108.841 211.575 111.262 210.831 113.527L211.401 113.714ZM209.019 117.556C210.11 116.498 210.941 115.207 211.403 113.709L210.83 113.532C210.399 114.927 209.626 116.132 208.601 117.125L209.019 117.556ZM219.168 117.04H208.81V117.64H219.168V117.04ZM219.202 117.04H219.168V117.64H219.202V117.04ZM219.864 117.163C219.661 117.078 219.422 117.04 219.202 117.04V117.64C219.362 117.64 219.519 117.669 219.631 117.716L219.864 117.163ZM220.092 117.294C220.055 117.257 219.945 117.14 219.747 117.14V117.74C219.738 117.74 219.725 117.738 219.71 117.734C219.695 117.73 219.682 117.724 219.671 117.717C219.662 117.712 219.656 117.707 219.656 117.706C219.655 117.706 219.656 117.707 219.658 117.709C219.66 117.711 219.663 117.713 219.667 117.718L220.092 117.294ZM220.125 117.305C220.092 117.285 220.068 117.271 220.046 117.256L219.713 117.755C219.749 117.779 219.787 117.802 219.817 117.82L220.125 117.305ZM220.414 117.517C220.313 117.416 220.199 117.349 220.125 117.305L219.817 117.82C219.899 117.869 219.95 117.901 219.99 117.941L220.414 117.517ZM220.47 117.583C220.464 117.577 220.46 117.573 220.457 117.57C220.454 117.567 220.452 117.565 220.452 117.564C220.451 117.563 220.456 117.569 220.462 117.58L219.941 117.878C219.982 117.949 220.038 118 220.056 118.016L220.47 117.583ZM220.602 117.752C220.558 117.663 220.491 117.603 220.47 117.583L220.056 118.016C220.063 118.023 220.067 118.027 220.071 118.031C220.074 118.034 220.076 118.036 220.076 118.037C220.077 118.037 220.071 118.031 220.066 118.02L220.602 117.752ZM220.602 117.74C220.596 117.734 220.593 117.73 220.589 117.727C220.586 117.724 220.584 117.722 220.584 117.722C220.583 117.72 220.588 117.726 220.595 117.737L220.074 118.035C220.114 118.106 220.171 118.157 220.188 118.173L220.602 117.74ZM220.735 117.909C220.69 117.82 220.624 117.76 220.602 117.74L220.188 118.173C220.195 118.18 220.199 118.184 220.203 118.188C220.206 118.191 220.208 118.193 220.208 118.194C220.209 118.194 220.204 118.189 220.198 118.177L220.735 117.909ZM237.749 144.301L220.719 117.881L220.214 118.206L237.244 144.626L237.749 144.301ZM237.831 146.169C238.126 145.578 238.141 144.844 237.74 144.288L237.253 144.64C237.497 144.977 237.512 145.466 237.294 145.901L237.831 146.169ZM236.182 147.137C236.876 147.137 237.481 146.75 237.82 146.19L237.306 145.88C237.066 146.278 236.646 146.537 236.182 146.537V147.137ZM220.698 147.137H236.182V146.537H220.698V147.137ZM220.998 224.861V146.837H220.398V224.861H220.998ZM234.865 236.001C232.42 229.91 227.076 225.666 220.749 224.566L220.647 225.157C226.77 226.222 231.942 230.328 234.308 236.224L234.865 236.001ZM236.101 241.344C235.941 239.525 235.547 237.727 234.866 236.002L234.308 236.223C234.966 237.888 235.348 239.628 235.503 241.397L236.101 241.344ZM221.031 143.727V124.134H220.431V143.727H221.031ZM233.363 143.427H220.731V144.027H233.363V143.427ZM220.479 124.297L233.111 143.89L233.615 143.565L220.983 123.972L220.479 124.297ZM217.323 145.265V241.37H217.923V145.265H217.323ZM217.518 145.563L217.618 145.565L217.627 144.965L217.526 144.964L217.518 145.563ZM217.222 120.379V145.263H217.822V120.379H217.222ZM183.503 120.679H217.522V120.079H183.503V120.679ZM183.803 158.664V120.379H183.203V158.664H183.803ZM183.006 160.192C183.498 159.847 183.803 159.277 183.803 158.664H183.203C183.203 159.077 182.996 159.466 182.662 159.7L183.006 160.192ZM181.966 160.535C182.354 160.535 182.706 160.414 183.013 160.187L182.655 159.705C182.449 159.858 182.222 159.935 181.966 159.935V160.535ZM181.322 160.419C181.537 160.494 181.736 160.535 181.966 160.535V159.935C181.816 159.935 181.684 159.91 181.519 159.853L181.322 160.419ZM166.399 154.737L181.313 160.416L181.527 159.856L166.613 154.176L166.399 154.737ZM151.699 160.416L166.613 154.737L166.399 154.176L151.486 159.856L151.699 160.416ZM149.974 160.225C150.471 160.573 151.124 160.651 151.705 160.414L151.479 159.858C151.086 160.018 150.647 159.964 150.318 159.733L149.974 160.225ZM149.176 158.697C149.176 159.31 149.481 159.88 149.974 160.225L150.318 159.733C149.983 159.499 149.776 159.11 149.776 158.697H149.176ZM149.176 120.38V158.697H149.776V120.38H149.176ZM115.457 120.68H149.476V120.08H115.457V120.68ZM115.757 219.148V120.38H115.157V219.148H115.757ZM120.981 218.234C119.54 217.518 117.563 217.323 115.286 218.901L115.628 219.394C117.717 217.946 119.46 218.148 120.714 218.771L120.981 218.234ZM122.124 225.337C122.512 224.189 122.879 222.753 122.834 221.443C122.788 220.124 122.318 218.877 120.978 218.232L120.717 218.773C121.782 219.285 122.193 220.271 122.234 221.463C122.276 222.664 121.936 224.018 121.555 225.144L122.124 225.337ZM127.587 232.317C127.484 228.82 125.122 225.881 121.923 224.952L121.756 225.529C124.708 226.386 126.892 229.101 126.988 232.334L127.587 232.317ZM127.449 232.057C127.438 232.054 127.417 232.047 127.396 232.041C127.38 232.037 127.337 232.025 127.287 232.025V232.625C127.277 232.625 127.269 232.625 127.263 232.624C127.257 232.623 127.252 232.623 127.248 232.622C127.245 232.621 127.242 232.621 127.241 232.621C127.239 232.62 127.239 232.62 127.239 232.62C127.238 232.62 127.239 232.62 127.24 232.62C127.241 232.621 127.242 232.621 127.244 232.622C127.248 232.623 127.252 232.624 127.259 232.627L127.449 232.057ZM127.42 232.058C127.43 232.058 127.438 232.059 127.444 232.06C127.451 232.06 127.456 232.061 127.459 232.062C127.462 232.062 127.465 232.063 127.466 232.063C127.468 232.064 127.469 232.064 127.469 232.064C127.469 232.064 127.468 232.064 127.467 232.063C127.466 232.063 127.465 232.063 127.463 232.062C127.459 232.061 127.455 232.06 127.449 232.057L127.259 232.627C127.269 232.63 127.29 232.637 127.311 232.643C127.328 232.647 127.37 232.658 127.42 232.658V232.058ZM135.447 241.329C134.852 236.981 131.819 233.353 127.505 232.071L127.334 232.646C131.419 233.86 134.289 237.293 134.852 241.41L135.447 241.329ZM217.623 241.07H135.149V241.67H217.623V241.07ZM85.9064 117.136L82.7979 111.01L82.2628 111.281L85.3714 117.407L85.9064 117.136ZM113.936 116.964L85.6388 116.972L85.639 117.572L113.936 117.564L113.936 116.964ZM119.549 116.964H113.936V117.564H119.549V116.964ZM119.13 117.144C119.185 117.237 119.239 117.328 119.291 117.416L119.808 117.112C119.755 117.023 119.701 116.931 119.646 116.838L119.13 117.144ZM119.053 117.014C119.079 117.058 119.105 117.101 119.13 117.144L119.646 116.838C119.621 116.796 119.595 116.752 119.57 116.709L119.053 117.014ZM156.676 116.562H119.311V117.162H156.676V116.562ZM156.695 117.426C156.777 117.288 156.858 117.149 156.937 117.01L156.415 116.714C156.338 116.85 156.259 116.985 156.179 117.119L156.695 117.426ZM180.619 116.972H156.437V117.572H180.619V116.972ZM189.718 112.326L180.483 117.005L180.755 117.54L189.989 112.861L189.718 112.326ZM189.569 106.34C188.878 108.42 188.904 110.635 189.568 112.685L190.139 112.501C189.513 110.566 189.489 108.483 190.138 106.529L189.569 106.34ZM193.3 101.221C191.543 102.475 190.257 104.265 189.569 106.34L190.138 106.529C190.789 104.568 192 102.886 193.649 101.71L193.3 101.221ZM174.325 64.4653L193.207 101.601L193.742 101.329L174.86 64.1934L174.325 64.4653ZM163.222 60.8843C165.827 64.4863 170.485 66.0032 174.686 64.6142L174.498 64.0445C170.547 65.3508 166.161 63.9243 163.708 60.5326L163.222 60.8843ZM86.2872 100.285L163.601 60.9758L163.329 60.441L86.0153 99.7506L86.2872 100.285ZM86.436 106.272C87.1266 104.191 87.1003 101.976 86.4367 99.9256L85.8658 100.11C86.4919 102.045 86.5152 104.129 85.8665 106.083L86.436 106.272ZM82.7046 111.39C84.462 110.136 85.7474 108.346 86.436 106.272L85.8665 106.083C85.2159 108.043 84.0048 109.725 82.3561 110.902L82.7046 111.39ZM152.626 120.68H180.461V120.08H152.626V120.68ZM152.934 156.424L152.926 120.38L152.326 120.38L152.334 156.424L152.934 156.424ZM165.895 151.043L152.527 156.144L152.741 156.704L166.109 151.604L165.895 151.043ZM166.548 150.924C166.327 150.924 166.088 150.962 165.886 151.047L166.118 151.6C166.23 151.553 166.387 151.524 166.548 151.524V150.924ZM167.192 151.04C166.977 150.965 166.778 150.924 166.548 150.924V151.524C166.698 151.524 166.829 151.549 166.995 151.607L167.192 151.04ZM180.568 156.144L167.2 151.043L166.986 151.604L180.354 156.704L180.568 156.144ZM180.161 120.38V156.424H180.761V120.38H180.161ZM68.4609 104.536C66.9984 101.666 68.1552 98.1607 70.9906 96.7313L70.7205 96.1956C67.5871 97.7752 66.3135 101.644 67.9263 104.809L68.4609 104.536ZM74.9014 117.142L68.4607 104.536L67.9264 104.809L74.3671 117.415L74.9014 117.142ZM82.1738 116.979H74.6342V117.579H82.1738V116.979ZM78.864 111.421L81.9063 117.415L82.4413 117.143L79.399 111.149L78.864 111.421ZM78.7483 109.998C78.5901 110.463 78.6277 110.998 78.8696 111.431L79.3935 111.139C79.2385 110.861 79.21 110.504 79.3163 110.191L78.7483 109.998ZM79.6596 108.929C79.2427 109.152 78.8966 109.533 78.7465 110.003L79.3181 110.186C79.416 109.879 79.6486 109.615 79.9426 109.458L79.6596 108.929ZM82.9145 105.122C82.3598 106.778 81.2292 108.128 79.6648 108.926L79.9374 109.461C81.647 108.589 82.8807 107.112 83.4835 105.312L82.9145 105.122ZM82.5184 100.129C83.3162 101.693 83.4358 103.471 82.9129 105.127L83.4851 105.307C84.0534 103.507 83.925 101.566 83.0529 99.8559L82.5184 100.129ZM82.4024 98.7051C82.2442 99.1699 82.2818 99.705 82.5237 100.138L83.0476 99.846C82.8927 99.5684 82.8641 99.2107 82.9704 98.8984L82.4024 98.7051ZM83.3138 97.6361C82.8968 97.8591 82.5508 98.2401 82.4006 98.7105L82.9722 98.893C83.0701 98.5863 83.3028 98.3224 83.5968 98.1652L83.3138 97.6361ZM163.196 57.0094L83.3193 97.6332L83.5913 98.168L163.468 57.5442L163.196 57.0094ZM165.71 57.7995C165.223 56.9329 164.118 56.5434 163.196 57.009L163.467 57.5445C164.083 57.2331 164.847 57.4883 165.186 58.0934L165.71 57.7995ZM174.514 60.6963C171.296 62.3249 167.336 61.0353 165.716 57.8117L165.18 58.0811C166.95 61.6036 171.273 63.0091 174.785 61.2316L174.514 60.6963ZM175.936 60.5807C175.472 60.4225 174.937 60.4601 174.503 60.702L174.796 61.2259C175.073 61.071 175.431 61.0424 175.743 61.1487L175.936 60.5807ZM177.005 61.4921C176.782 61.0751 176.401 60.7291 175.931 60.5789L175.749 61.1505C176.055 61.2484 176.319 61.4811 176.476 61.7751L177.005 61.4921ZM197.131 101.205L177.009 61.498L176.473 61.7692L196.595 101.477L197.131 101.205ZM196.329 103.692C197.25 103.227 197.592 102.118 197.131 101.206L196.595 101.476C196.911 102.102 196.675 102.845 196.058 103.157L196.329 103.692ZM193.08 107.496C193.635 105.84 194.765 104.489 196.33 103.692L196.057 103.157C194.347 104.029 193.114 105.506 192.511 107.306L193.08 107.496ZM193.476 112.489C192.678 110.925 192.559 109.147 193.082 107.491L192.509 107.311C191.941 109.111 192.069 111.052 192.942 112.762L193.476 112.489ZM193.592 113.913C193.75 113.448 193.713 112.913 193.471 112.48L192.947 112.772C193.102 113.05 193.13 113.407 193.024 113.72L193.592 113.913ZM192.681 114.982C193.098 114.759 193.444 114.378 193.594 113.907L193.022 113.725C192.924 114.032 192.692 114.296 192.398 114.453L192.681 114.982ZM187.607 117.548L192.675 114.985L192.404 114.45L187.336 117.012L187.607 117.548ZM202.956 116.98H187.472V117.58H202.956V116.98ZM205.001 115.889L202.818 117.013L203.093 117.547L205.276 116.422L205.001 115.889ZM207.896 112.498C207.407 113.964 206.4 115.181 205.003 115.888L205.274 116.423C206.819 115.642 207.929 114.296 208.465 112.687L207.896 112.498ZM207.558 108.082C208.258 109.459 208.383 111.037 207.896 112.498L208.465 112.687C209.003 111.073 208.864 109.328 208.092 107.81L207.558 108.082ZM177.539 49.0461L207.558 108.082L208.092 107.811L178.074 48.7742L177.539 49.0461ZM174.148 46.1525C175.615 46.6414 176.832 47.6483 177.539 49.0455L178.074 48.7748C177.292 47.2289 175.947 46.1195 174.338 45.5833L174.148 46.1525ZM172.35 45.8785C172.964 45.8785 173.571 45.9729 174.154 46.1543L174.332 45.5814C173.692 45.3825 173.026 45.2785 172.35 45.2785V45.8785ZM169.726 46.5149C170.551 46.0907 171.463 45.8785 172.35 45.8785V45.2785C171.369 45.2785 170.363 45.5127 169.452 45.9814L169.726 46.5149ZM70.9916 96.7308L169.725 46.5156L169.453 45.9808L70.7196 96.196L70.9916 96.7308ZM56.4212 120.68H111.058V120.08H56.4212V120.68ZM41.6354 143.857L56.6733 120.543L56.1691 120.218L41.1312 143.532L41.6354 143.857ZM96.0197 143.394H41.3833V143.994H96.0197V143.394ZM110.806 120.218L95.7676 143.532L96.2718 143.857L111.31 120.543L110.806 120.218ZM57.1322 147.135H96.8968V146.535H57.1322V147.135ZM57.4321 224.702L57.4322 146.835L56.8322 146.835L56.8321 224.702L57.4321 224.702ZM57.1773 224.397L57.1099 224.402L57.1542 225.001L57.2216 224.996L57.1773 224.397ZM58.4465 224.335C58.0097 224.335 57.5973 224.366 57.1772 224.397L57.2217 224.996C57.6449 224.964 58.0355 224.935 58.4465 224.935V224.335ZM72.7222 230.982C69.2013 226.78 63.9831 224.335 58.4465 224.335V224.935C63.8059 224.935 68.8555 227.302 72.2623 231.367L72.7222 230.982ZM78.8964 229.21C76.5962 228.781 74.0717 229.405 72.2955 230.948L72.689 231.401C74.319 229.985 76.6554 229.402 78.7864 229.8L78.8964 229.21ZM78.5083 228.67C78.5083 228.957 78.5081 229.23 78.5434 229.539L79.1395 229.471C79.1086 229.201 79.1083 228.961 79.1083 228.67H78.5083ZM96.6983 210.48C86.6869 210.48 78.5083 218.633 78.5083 228.67H79.1083C79.1083 218.965 87.0177 211.08 96.6983 211.08V210.48ZM112.644 219.837C109.55 214.161 103.513 210.48 96.6983 210.48V211.08C103.293 211.08 109.128 214.641 112.118 220.125L112.644 219.837ZM112.081 124.132V219.981H112.681V124.132H112.081ZM98.4635 146.295L112.633 124.295L112.129 123.97L97.9591 145.97L98.4635 146.295ZM96.8968 147.135C97.5044 147.135 98.1149 146.833 98.463 146.295L97.9595 145.969C97.7291 146.325 97.3144 146.535 96.8968 146.535V147.135ZM43.6084 241.397C43.7378 240.014 44.0777 238.669 44.5813 237.378L44.0223 237.16C43.5007 238.497 43.1462 239.897 43.011 241.341L43.6084 241.397ZM132.04 241.069L43.3097 241.069L43.3097 241.669L132.04 241.669L132.04 241.069ZM126.472 235.597C129.218 236.432 131.221 238.683 131.746 241.426L132.335 241.313C131.769 238.351 129.605 235.923 126.647 235.023L126.472 235.597ZM125.513 235.348C125.866 235.414 126.157 235.476 126.452 235.59L126.667 235.03C126.317 234.895 125.98 234.825 125.622 234.758L125.513 235.348ZM123.953 233.516C123.953 234.438 124.644 235.202 125.518 235.349L125.617 234.758C125.019 234.657 124.553 234.132 124.553 233.516H123.953ZM123.953 232.491V233.516H124.553V232.491H123.953ZM120.719 228.417C122.574 228.865 123.953 230.519 123.953 232.491H124.553C124.553 230.23 122.973 228.345 120.86 227.834L120.719 228.417ZM119.814 230.265C120.405 229.479 120.762 228.851 121.057 228.26L120.521 227.991C120.238 228.557 119.9 229.153 119.334 229.904L119.814 230.265ZM118.326 231.03C118.895 231.03 119.471 230.765 119.821 230.255L119.326 229.915C119.098 230.248 118.715 230.43 118.326 230.43V231.03ZM117.235 230.691C117.569 230.911 117.948 231.03 118.326 231.03V230.43C118.074 230.43 117.809 230.35 117.564 230.19L117.235 230.691ZM116.835 228.081C116.224 228.918 116.412 230.07 117.219 230.68L117.581 230.201C117.031 229.786 116.905 229.003 117.32 228.435L116.835 228.081ZM117.977 225.968C117.834 226.527 117.627 226.971 116.833 228.084L117.321 228.432C118.131 227.296 118.388 226.781 118.558 226.117L117.977 225.968ZM117.968 226.009V226.042H118.568V226.009H117.968ZM118.032 225.718C118.006 225.77 117.987 225.823 117.976 225.882C117.967 225.936 117.968 225.985 117.968 226.009H118.568C118.568 226.002 118.568 225.996 118.568 225.992C118.568 225.987 118.568 225.984 118.568 225.982C118.568 225.979 118.568 225.981 118.567 225.985C118.567 225.99 118.565 225.994 118.565 225.995C118.564 225.997 118.565 225.994 118.569 225.986L118.032 225.718ZM119.125 221.277C119.123 221.272 119.131 221.288 119.14 221.339C119.149 221.387 119.156 221.456 119.158 221.548C119.161 221.733 119.143 222 119.081 222.363C118.956 223.089 118.658 224.182 118.023 225.739L118.578 225.965C119.225 224.381 119.538 223.245 119.672 222.465C119.739 222.074 119.762 221.768 119.757 221.537C119.753 221.317 119.724 221.13 119.659 221.002L119.125 221.277ZM114.165 225.722C114.674 224.909 115.565 223.601 116.551 222.611C117.045 222.115 117.547 221.715 118.022 221.492C118.495 221.27 118.906 221.238 119.261 221.41L119.523 220.87C118.948 220.591 118.337 220.682 117.768 220.949C117.201 221.215 116.642 221.67 116.126 222.188C115.092 223.225 114.173 224.579 113.657 225.403L114.165 225.722ZM112.292 226.561C113.022 226.68 113.778 226.338 114.165 225.722L113.657 225.403C113.399 225.813 112.882 226.049 112.388 225.969L112.292 226.561ZM110.799 225.138C110.959 225.882 111.576 226.405 112.276 226.558L112.404 225.972C111.898 225.861 111.489 225.491 111.385 225.011L110.799 225.138ZM96.7236 214.123C103.482 214.123 109.262 218.651 110.8 225.144L111.384 225.006C109.78 218.238 103.755 213.523 96.7236 213.523V214.123ZM82.242 228.605C82.242 220.627 88.7461 214.123 96.7236 214.123V213.523C88.4147 213.523 81.642 220.296 81.642 228.605H82.242ZM82.5579 231.461C82.3709 230.575 82.242 229.638 82.242 228.605H81.642C81.642 229.689 81.7775 230.669 81.9708 231.585L82.5579 231.461ZM81.7833 233.411C82.4456 232.98 82.7025 232.213 82.559 231.467L81.9698 231.58C82.0742 232.123 81.8847 232.629 81.4558 232.909L81.7833 233.411ZM79.6877 233.407C80.3061 233.836 81.1414 233.83 81.7833 233.411L81.4558 232.909C81.0064 233.202 80.4363 233.196 80.0296 232.914L79.6877 233.407ZM74.0452 234.456C75.2651 232.699 77.9321 232.218 79.6905 233.409L80.0268 232.912C77.9989 231.539 74.9615 232.084 73.5524 234.113L74.0452 234.456ZM72.5174 235.254C73.1297 235.254 73.7002 234.949 74.0446 234.456L73.553 234.112C73.3188 234.447 72.9303 234.654 72.5174 234.654V235.254ZM72.2942 235.254H72.5174V234.654H72.2942V235.254ZM70.767 234.456C71.1115 234.949 71.6819 235.254 72.2942 235.254V234.654C71.8814 234.654 71.4928 234.447 71.2586 234.112L70.767 234.456ZM58.4716 227.979C63.4073 227.979 67.9937 230.402 70.7652 234.454L71.2604 234.115C68.3769 229.9 63.6051 227.379 58.4716 227.379V227.979ZM44.58 237.381C46.8743 231.69 52.3122 227.979 58.4716 227.979V227.379C52.0652 227.379 46.4085 231.241 44.0235 237.157L44.58 237.381ZM221.03 241.369V228.059H220.43V241.369H221.03ZM220.43 241.335L220.43 241.368L221.03 241.37L221.03 241.337L220.43 241.335ZM232.692 241.028L220.73 241.036L220.73 241.636L232.693 241.628L232.692 241.028ZM231.421 237.336C231.925 238.629 232.272 239.981 232.394 241.354L232.991 241.301C232.864 239.863 232.501 238.455 231.98 237.118L231.421 237.336ZM220.668 228.353C225.475 229.358 229.534 232.656 231.422 237.339L231.979 237.115C230.014 232.242 225.79 228.811 220.791 227.765L220.668 228.353Z" fill="#0099FF" mask="url(#path-2-outside-1_330_599)"/>
<path d="M67.236 154.285H67.236C66.283 154.285 65.5483 155.057 65.5483 155.973V166.967C65.5397 167.884 66.2836 168.664 67.236 168.664H102.287C103.24 168.664 103.975 167.892 103.975 166.976V155.981C103.975 155.028 103.203 154.293 102.287 154.293L67.236 154.285ZM68.9567 157.66H100.593V165.247H68.9567V157.66Z" fill="#0099FF" stroke="#0099FF" stroke-width="0.3"/>
<path d="M208.611 233.916C209.564 233.916 210.299 233.144 210.299 232.228V221.233C210.299 220.28 209.527 219.545 208.611 219.545C207.658 219.545 206.924 220.317 206.924 221.233V232.228C206.924 233.144 207.658 233.916 208.611 233.916Z" fill="#0099FF" stroke="#0099FF" stroke-width="0.3"/>
<path d="M199.344 233.916C200.297 233.916 201.032 233.144 201.032 232.228V221.233C201.032 220.28 200.26 219.545 199.344 219.545C198.426 219.545 197.656 220.315 197.656 221.233V232.228C197.656 233.146 198.426 233.916 199.344 233.916Z" fill="#0099FF" stroke="#0099FF" stroke-width="0.3"/>
<path d="M190.11 233.916C191.063 233.916 191.797 233.144 191.797 232.228V221.233C191.797 220.28 191.025 219.545 190.11 219.545C189.157 219.545 188.422 220.317 188.422 221.233V232.225C188.387 233.15 189.163 233.916 190.11 233.916Z" fill="#0099FF" stroke="#0099FF" stroke-width="0.3"/>
<path d="M180.842 225.405C179.889 225.405 179.155 226.177 179.155 227.093V232.194C179.155 233.147 179.927 233.881 180.842 233.881C181.76 233.881 182.53 233.112 182.53 232.194V227.096C182.565 226.136 181.787 225.405 180.842 225.405Z" fill="#0099FF" stroke="#0099FF" stroke-width="0.3"/>
<path d="M180.842 219.535C179.889 219.535 179.155 220.307 179.155 221.222V222.669C179.155 223.622 179.927 224.357 180.842 224.357C181.76 224.357 182.53 223.587 182.53 222.669V221.225C182.565 220.275 181.787 219.535 180.842 219.535Z" fill="#0099FF" stroke="#0099FF" stroke-width="0.3"/>
<path d="M204.352 71.9269L204.352 71.927L204.354 71.9258L215.158 65.7097C215.158 65.7096 215.159 65.7095 215.159 65.7093C215.968 65.2539 216.247 64.1946 215.794 63.3891C215.339 62.5789 214.279 62.3005 213.473 62.7531L213.473 62.7531L213.472 62.7539L202.667 68.9707L202.667 68.9707L202.665 68.9716C201.831 69.4652 201.542 70.4808 202.034 71.2929C202.353 71.8561 202.917 72.136 203.511 72.136C203.789 72.136 204.104 72.0649 204.352 71.9269Z" fill="#0099FF" stroke="#0099FF" stroke-width="0.3"/>
<path d="M198.693 64.532L198.693 64.532L198.695 64.5327C198.703 64.5345 198.71 64.5363 198.717 64.5381C198.841 64.5692 198.977 64.6033 199.145 64.6033C199.879 64.6033 200.586 64.1145 200.795 63.3346L200.65 63.2959L200.795 63.3346L203.556 53.009L203.556 53.009C203.8 52.0945 203.274 51.1769 202.359 50.9322C201.444 50.6877 200.527 51.2141 200.282 52.1295C200.282 52.1295 200.282 52.1296 200.282 52.1296L197.504 62.4537C197.25 63.3369 197.787 64.2873 198.693 64.532Z" fill="#0099FF" stroke="#0099FF" stroke-width="0.3"/>
<path d="M208.295 76.3708L208.295 76.3707C207.38 76.1262 206.463 76.6526 206.218 77.5681C205.973 78.4826 206.5 79.4001 207.415 79.6449C207.415 79.6449 207.415 79.6449 207.415 79.6449L217.741 82.4308L217.741 82.4308L217.743 82.4315C217.75 82.4333 217.758 82.4351 217.765 82.437C217.889 82.468 218.024 82.5021 218.193 82.5021C218.927 82.5021 219.634 82.0134 219.842 81.2335L219.843 81.2335L219.843 81.2308C220.061 80.3522 219.537 79.4018 218.62 79.1567C218.62 79.1567 218.62 79.1567 218.62 79.1567L208.295 76.3708Z" fill="#0099FF" stroke="#0099FF" stroke-width="0.3"/>
<path d="M220.103 62.8909L220.103 62.891L220.106 62.8894L222.089 61.7326C222.899 61.2771 223.177 60.2179 222.724 59.4126C222.269 58.6023 221.209 58.3239 220.404 58.7765L220.403 58.7768L218.419 59.9009C218.419 59.9009 218.419 59.901 218.419 59.901C217.609 60.3563 217.331 61.4158 217.783 62.2215L217.784 62.2218C218.099 62.781 218.661 63.0999 219.262 63.0999C219.54 63.0999 219.855 63.0289 220.103 62.8909Z" fill="#0099FF" stroke="#0099FF" stroke-width="0.3"/>
</svg>
